<svg width="500" height="500" xmlns="http://www.w3.org/2000/svg">
  <filter id="noise">
    <feTurbulence type="fractalNoise" baseFrequency="0.95" numOctaves="3" stitchTiles="stitch"/>
    <feColorMatrix type="matrix" values="1 0 0 0 0, 0 1 0 0 0, 0 0 1 0 0, 0 0 0 0.3 0"/>
  </filter>
  <rect width="500" height="500" filter="url(#noise)" opacity="0.2"/>
  <g opacity="0.08">
    <!-- Future era patterns: quantum, holographic, abstract patterns -->
    
    <!-- Quantum wave patterns -->
    <path d="M0,250 Q125,200 250,250 Q375,300 500,250" stroke="#311B92" stroke-width="2" fill="none" opacity="0.5"/>
    <path d="M0,200 Q125,300 250,200 Q375,100 500,200" stroke="#7C4DFF" stroke-width="2" fill="none" opacity="0.5"/>
    <path d="M0,300 Q125,100 250,300 Q375,500 500,300" stroke="#311B92" stroke-width="2" fill="none" opacity="0.5"/>
    
    <!-- Holographic grid -->
    <g stroke="#7C4DFF" stroke-width="0.5" opacity="0.2">
      <path d="M100,0 L100,500" stroke-dasharray="5,5"/>
      <path d="M200,0 L200,500" stroke-dasharray="5,5"/>
      <path d="M300,0 L300,500" stroke-dasharray="5,5"/>
      <path d="M400,0 L400,500" stroke-dasharray="5,5"/>
      
      <path d="M0,100 L500,100" stroke-dasharray="5,5"/>
      <path d="M0,200 L500,200" stroke-dasharray="5,5"/>
      <path d="M0,300 L500,300" stroke-dasharray="5,5"/>
      <path d="M0,400 L500,400" stroke-dasharray="5,5"/>
    </g>
    
    <!-- Quantum computing inspired elements -->
    <g fill="#311B92" opacity="0.3">
      <!-- Entangled particles representation -->
      <circle cx="150" cy="150" r="20" opacity="0.6"/>
      <circle cx="350" cy="350" r="20" opacity="0.6"/>
      <line x1="150" y1="150" x2="350" y2="350" stroke="#7C4DFF" stroke-width="1" stroke-dasharray="3,3"/>
      
      <circle cx="150" cy="350" r="20" opacity="0.6"/>
      <circle cx="350" cy="150" r="20" opacity="0.6"/>
      <line x1="150" y1="350" x2="350" y2="150" stroke="#7C4DFF" stroke-width="1" stroke-dasharray="3,3"/>
    </g>
    
    <!-- Abstract digital neural networks -->
    <g stroke="#7C4DFF" stroke-width="0.7" fill="none">
      <circle cx="250" cy="250" r="100" opacity="0.3"/>
      <circle cx="250" cy="250" r="80" opacity="0.3"/>
      <circle cx="250" cy="250" r="60" opacity="0.3"/>
      
      <!-- Neural network nodes -->
      <g fill="#311B92">
        <circle cx="250" cy="150" r="5"/>
        <circle cx="350" cy="250" r="5"/>
        <circle cx="250" cy="350" r="5"/>
        <circle cx="150" cy="250" r="5"/>
        
        <circle cx="300" cy="180" r="3"/>
        <circle cx="320" cy="320" r="3"/>
        <circle cx="180" cy="320" r="3"/>
        <circle cx="180" cy="180" r="3"/>
        
        <circle cx="250" cy="250" r="8"/>
      </g>
      
      <!-- Neural connections -->
      <line x1="250" y1="150" x2="250" y2="250" opacity="0.5"/>
      <line x1="350" y1="250" x2="250" y2="250" opacity="0.5"/>
      <line x1="250" y1="350" x2="250" y2="250" opacity="0.5"/>
      <line x1="150" y1="250" x2="250" y2="250" opacity="0.5"/>
      
      <line x1="300" y1="180" x2="250" y2="250" opacity="0.5"/>
      <line x1="320" y1="320" x2="250" y2="250" opacity="0.5"/>
      <line x1="180" y1="320" x2="250" y2="250" opacity="0.5"/>
      <line x1="180" y1="180" x2="250" y2="250" opacity="0.5"/>
    </g>
    
    <!-- Futuristic data streams -->
    <g stroke="#7C4DFF" stroke-width="0.5" opacity="0.2">
      <path d="M50,50 C150,100 350,200 450,250" />
      <path d="M50,450 C150,400 350,300 450,250" />
      <path d="M50,250 C150,250 350,250 450,250" />
    </g>
  </g>
</svg>