<svg width="500" height="500" xmlns="http://www.w3.org/2000/svg">
  <filter id="noise">
    <feTurbulence type="fractalNoise" baseFrequency="0.65" numOctaves="3" stitchTiles="stitch"/>
    <feColorMatrix type="matrix" values="1 0 0 0 0, 0 1 0 0 0, 0 0 1 0 0, 0 0 0 0.8 0"/>
  </filter>
  <rect width="500" height="500" filter="url(#noise)" opacity="0.4"/>
  <g opacity="0.05">
    <path d="M100,100 L400,100 L400,400 L100,400 Z" fill="none" stroke="#5D4037" stroke-width="4"/>
    <path d="M120,120 L380,120 L380,380 L120,380 Z" fill="none" stroke="#8D6E63" stroke-width="3"/>
    <path d="M250,20 L250,480" stroke="#5D4037" stroke-width="2"/>
    <path d="M20,250 L480,250" stroke="#8D6E63" stroke-width="2"/>
    <g stroke="#5D4037" stroke-width="2">
      <circle cx="250" cy="250" r="200" fill="none"/>
      <circle cx="250" cy="250" r="150" fill="none"/>
      <circle cx="250" cy="250" r="100" fill="none"/>
      <circle cx="250" cy="250" r="50" fill="none"/>
    </g>
    <g fill="#8D6E63" opacity="0.1">
      <path d="M180,150 L220,150 L230,180 L170,180 Z"/>
      <path d="M280,150 L320,150 L330,180 L270,180 Z"/>
      <path d="M180,320 L220,320 L230,350 L170,350 Z"/>
      <path d="M280,320 L320,320 L330,350 L270,350 Z"/>
    </g>
  </g>
</svg>